<svg
      aria-hidden="true"
      data-prefix="fab"
      data-icon="instagram"
      className="prefix__svg-inline--fa prefix__fa-instagram prefix__fa-w-14"
      xmlns="http://www.w3.org/2000/svg"
      viewBox="0 0 448 512"
      {...props}
    >
      <path
        fill={props.fill}
    d="M224.1 141c-63.6 0-114.9 51.3-114.9 114.9S160.5 370.8 224.1 370.8 339 319.5 339 255.9 287.7 141 224.1 141zm0 186.6c-39.7 0-71.8-32.2-71.8-71.8s32.1-71.8 71.8-71.8 71.8 32.2 71.8 71.8-32.1 71.8-71.8 71.8zm146.4-194.3c0 14.9-12.1 27-27 27-14.9 0-27-12.1-27-27s12.1-27 27-27 27 12.1 27 27zm76.1 27.2c-1.7-35.9-9.9-67.7-36.2-93.9-26.3-26.3-58.1-34.5-93.9-36.2-37.1-2.1-148.4-2.1-185.5 0-35.9 1.7-67.7 9.9-93.9 36.2S6.1 124.1 4.4 160c-2.1 37.1-2.1 148.4 0 185.5 1.7 35.9 9.9 67.7 36.2 93.9 26.3 26.3 58.1 34.5 93.9 36.2 37.1 2.1 148.4 2.1 185.5 0 35.9-1.7 67.7-9.9 93.9-36.2 26.3-26.3 34.5-58.1 36.2-93.9 2.1-37.1 2.1-148.4 0-185.5zM398.8 388c-7.8 19.6-22.9 34.6-42.5 42.5-29.4 11.7-99.2 9-132.2 9s-102.7 2.6-132.2-9c-19.6-7.8-34.6-22.9-42.5-42.5-11.7-29.4-9-99.2-9-132.2s-2.6-102.7 9-132.2c7.8-19.6 22.9-34.6 42.5-42.5 29.4-11.7 99.2-9 132.2-9s102.7-2.6 132.2 9c19.6 7.8 34.6 22.9 42.5 42.5 11.7 29.4 9 99.2 9 132.2s2.7 102.7-9 132.2z"
      />
    </svg>