<svg
      aria-hidden="true"
      data-prefix="fab"
      data-icon="linkedin"
      className="prefix__svg-inline--fa prefix__fa-linkedin prefix__fa-w-14"
      xmlns="http://www.w3.org/2000/svg"
      viewBox="0 0 448 512"
      {...props}
    >
      <path
        fill={props.fill}
        d="M100.28 480H7V165.89h93.28V480zM53.64 122.56C23.95 122.56 0 98.58 0 68.9 0 39.23 23.95 15.36 53.64 15.36c29.69 0 53.64 23.87 53.64 53.54 0 29.68-23.95 53.66-53.64 53.66zM447.92 480h-92.66V312.29c0-38.02-13.59-64.19-48.35-64.19-26.37 0-42.1 17.74-49.09 34.88-2.52 6.14-3.16 14.66-3.16 23.23V480h-92.66s1.25-276.1 0-304.11h92.66v43.09c12.33-19.01 34.41-46.1 83.59-46.1 61.01 0 106.73 39.86 106.73 125.49V480z"
      />
    </svg>